<?xml version="1.0" encoding="utf-8"?>
<!-- Generator: Adobe Illustrator 25.2.3, SVG Export Plug-In . SVG Version: 6.00 Build 0)  -->
<svg version="1.1" id="Capa_1" xmlns="http://www.w3.org/2000/svg" xmlns:xlink="http://www.w3.org/1999/xlink" x="0px" y="0px"
	 viewBox="0 0 177.93 64.83" style="enable-background:new 0 0 177.93 64.83;" xml:space="preserve">
<style type="text/css">
	.st0{fill-rule:evenodd;clip-rule:evenodd;fill:#E52713;}
	.st1{fill-rule:evenodd;clip-rule:evenodd;fill:#00558C;}
</style>
<g>
	<path class="st0" d="M34.28,17.15C46.99,8.66,58.81,5.23,62.12,9.54c1.93,2.51,0.61,7.18-3.06,12.67c1.57-3.21,1.9-5.87,0.66-7.49
		c-1.99-2.6-7.56-1.93-14.43,1.21l-2.48,7.21h5.12l-2.34,6.79h-5.12l-2.96,8.62c-0.36,1.04-0.49,1.73-0.41,2.06
		c0.13,0.52,0.57,0.78,1.33,0.78c0.69,0,1.73-0.19,3.1-0.59l-1.54,6.42c-2.48,0.5-4.71,0.75-6.71,0.75c-2.32,0-3.93-0.3-4.82-0.89
		c-0.9-0.59-1.4-1.5-1.51-2.71c-0.11-1.21,0.3-3.18,1.24-5.9l2.94-8.55H27.7l1.45-3.57c0.72-0.6,1.45-1.2,2.21-1.79
		c2.83-2.21,5.67-4.14,8.42-5.76l-9.7,28.92H18.26l5.51-16.44c-7.62,7.71-11.51,15.23-9,18.5c1.51,1.96,5.07,2.06,9.68,0.63
		c-7.68,3.35-13.83,3.98-16.07,1.06c-3.68-4.79,4.45-17.44,18.23-28.67l1.9-5.66H34.28z"/>
	<path class="st1" d="M169.87,27.39l-7.12,20.71h-5.77l5.67-16.5L169.87,27.39z M68.27,32.15h5.63l1.32-3.84H69.6L68.27,32.15z
		 M67.88,33.1h5.75l-5.15,15h-5.75L67.88,33.1z M157.58,42.02h-11.52c-0.22,0.93-0.2,1.61,0.04,2.06c0.33,0.65,0.95,0.97,1.84,0.97
		c0.56,0,1.15-0.14,1.76-0.42c0.37-0.18,0.81-0.49,1.33-0.95l5.49,0.52c-1.39,1.51-2.8,2.59-4.25,3.24
		c-1.45,0.65-3.32,0.98-5.61,0.98c-1.99,0-3.45-0.28-4.4-0.84c-0.95-0.56-1.58-1.45-1.91-2.67c-0.33-1.22-0.21-2.65,0.35-4.3
		c0.8-2.34,2.21-4.24,4.21-5.69c2-1.45,4.33-2.18,6.97-2.18c2.15,0,3.73,0.33,4.75,0.98c1.02,0.65,1.65,1.59,1.87,2.82
		c0.23,1.23,0,2.84-0.68,4.82L157.58,42.02z M152.68,39.27c0.27-1.11,0.24-1.91-0.08-2.39c-0.32-0.48-0.88-0.72-1.67-0.72
		c-0.92,0-1.77,0.37-2.57,1.09c-0.5,0.45-0.95,1.12-1.35,2.02H152.68z M118.61,37.95l-5.29-0.58c0.54-0.96,1.1-1.72,1.68-2.27
		c0.58-0.55,1.3-1.03,2.18-1.43c0.63-0.29,1.43-0.52,2.41-0.68c0.98-0.16,2-0.24,3.08-0.24c1.72,0,3.08,0.1,4.05,0.29
		c0.98,0.19,1.71,0.6,2.2,1.21c0.35,0.42,0.53,1.02,0.54,1.8c0.01,0.78-0.1,1.52-0.35,2.23l-2.28,6.62
		c-0.24,0.7-0.38,1.26-0.44,1.66c-0.05,0.4-0.03,0.91,0.06,1.53h-5.4c-0.08-0.39-0.12-0.68-0.12-0.88c0-0.2,0.05-0.52,0.13-0.95
		c-1,0.73-1.93,1.24-2.78,1.55c-1.16,0.41-2.41,0.62-3.76,0.62c-1.79,0-3.01-0.41-3.65-1.24c-0.64-0.82-0.75-1.85-0.34-3.06
		c0.39-1.14,1.05-2.08,1.97-2.81c0.92-0.74,2.34-1.28,4.26-1.64c2.31-0.43,3.81-0.74,4.51-0.91c0.7-0.17,1.46-0.4,2.27-0.68
		c0.24-0.71,0.27-1.2,0.08-1.49c-0.2-0.28-0.66-0.42-1.4-0.42c-0.94,0-1.7,0.15-2.27,0.45C119.51,36.86,119.06,37.31,118.61,37.95z
		 M122.56,40.98c-0.89,0.28-1.8,0.54-2.73,0.75c-1.27,0.31-2.12,0.62-2.53,0.92c-0.43,0.31-0.71,0.67-0.85,1.06
		c-0.16,0.45-0.12,0.82,0.09,1.11c0.22,0.28,0.63,0.43,1.25,0.43c0.64,0,1.29-0.15,1.95-0.46c0.66-0.31,1.18-0.69,1.56-1.14
		c0.39-0.45,0.7-1.03,0.94-1.75L122.56,40.98z M58.82,41.05L63,42.46c-0.76,1.31-1.63,2.4-2.61,3.28c-0.98,0.88-2.05,1.54-3.2,1.99
		c-1.16,0.45-2.5,0.67-4.05,0.67c-1.88,0-3.32-0.27-4.32-0.82c-1-0.55-1.7-1.51-2.09-2.88c-0.39-1.37-0.22-3.13,0.52-5.27
		c0.98-2.86,2.5-5.05,4.54-6.59c2.05-1.53,4.46-2.3,7.24-2.3c2.17,0,3.73,0.44,4.67,1.32c0.94,0.88,1.4,2.23,1.38,4.05l-5.07,1.05
		c0.02-0.53-0.02-0.91-0.12-1.16c-0.16-0.41-0.42-0.72-0.77-0.94c-0.36-0.22-0.8-0.33-1.34-0.33c-1.21,0-2.3,0.49-3.28,1.46
		c-0.73,0.72-1.37,1.86-1.9,3.4c-0.66,1.92-0.82,3.23-0.48,3.94c0.34,0.71,1.03,1.06,2.08,1.06c1.02,0,1.89-0.29,2.61-0.86
		C57.54,42.97,58.2,42.14,58.82,41.05z M84.85,27.39l-1.96,5.71h3.16l-1.44,4.19h-3.16l-1.83,5.32c-0.22,0.64-0.3,1.07-0.25,1.27
		c0.08,0.32,0.35,0.48,0.82,0.48c0.42,0,1.06-0.13,1.91-0.37l-0.94,3.97c-1.53,0.31-2.91,0.46-4.14,0.46
		c-1.43,0-2.43-0.18-2.97-0.55c-0.55-0.37-0.86-0.93-0.93-1.67c-0.07-0.75,0.19-1.96,0.76-3.64l1.81-5.28h-2.12l1.44-4.19
		L84.85,27.39z M87.5,33.1h5.37l-0.75,2.19c1.09-0.92,2.09-1.56,3.01-1.95c0.92-0.39,1.93-0.58,3.05-0.58c1.2,0,2.07,0.21,2.62,0.64
		c0.55,0.42,0.91,1.06,1.06,1.89c1.24-0.98,2.29-1.65,3.16-2c0.86-0.35,1.84-0.53,2.94-0.53c1.61,0,2.7,0.48,3.28,1.44
		c0.58,0.95,0.51,2.45-0.19,4.48l-3.24,9.42h-5.76l2.94-8.54c0.23-0.68,0.28-1.19,0.13-1.51c-0.21-0.52-0.6-0.78-1.18-0.78
		c-0.67,0-1.31,0.25-1.89,0.73c-0.58,0.49-1.06,1.28-1.43,2.36l-2.66,7.74h-5.77l2.84-8.26c0.23-0.66,0.34-1.1,0.35-1.34
		c0-0.38-0.1-0.68-0.32-0.91c-0.22-0.23-0.54-0.35-0.94-0.35c-0.66,0-1.29,0.25-1.88,0.75c-0.6,0.5-1.09,1.32-1.48,2.46L88.1,48.1
		h-5.76L87.5,33.1z M141.39,27.39l-1.96,5.71h3.16l-1.44,4.19h-3.16l-1.83,5.32c-0.22,0.64-0.3,1.07-0.25,1.27
		c0.08,0.32,0.35,0.48,0.82,0.48c0.42,0,1.06-0.13,1.91-0.37l-0.94,3.97c-1.53,0.31-2.91,0.46-4.14,0.46
		c-1.43,0-2.42-0.18-2.97-0.55c-0.55-0.37-0.86-0.93-0.93-1.67c-0.07-0.75,0.19-1.96,0.76-3.64l1.81-5.28h-2.12l1.44-4.19
		L141.39,27.39z"/>
	<path class="st1" d="M149.48,50.1h0.62l-0.81,1.14h-0.34L149.48,50.1z M150.53,53.09v1.87h-0.62l-0.01-0.53
		c-0.11,0.2-0.25,0.36-0.41,0.46c-0.16,0.1-0.33,0.16-0.52,0.16c-0.28,0-0.5-0.1-0.67-0.29c-0.17-0.19-0.25-0.44-0.25-0.75
		c0-0.37,0.12-0.64,0.36-0.82c0.24-0.18,0.6-0.27,1.08-0.27h0.36v-0.05c0-0.22-0.06-0.4-0.18-0.52c-0.12-0.12-0.29-0.18-0.5-0.18
		c-0.12,0-0.25,0.02-0.38,0.07c-0.13,0.04-0.27,0.11-0.41,0.2l-0.01-0.6c0.16-0.08,0.32-0.14,0.48-0.18
		c0.16-0.04,0.32-0.06,0.48-0.06c0.41,0,0.71,0.12,0.9,0.36C150.43,52.19,150.53,52.57,150.53,53.09z M149.6,53.39
		c-0.29,0-0.5,0.05-0.65,0.14c-0.15,0.1-0.22,0.24-0.22,0.43c0,0.14,0.04,0.26,0.12,0.35c0.08,0.09,0.19,0.14,0.33,0.14
		c0.19,0,0.35-0.08,0.48-0.25c0.13-0.16,0.19-0.38,0.19-0.64v-0.18H149.6z M145.6,52.3c0.11-0.23,0.24-0.41,0.4-0.52
		c0.16-0.12,0.35-0.18,0.56-0.18c0.29,0,0.52,0.12,0.68,0.37c0.16,0.24,0.24,0.59,0.24,1.04v1.96h-0.7v-1.78
		c0-0.3-0.04-0.52-0.12-0.66c-0.08-0.14-0.2-0.21-0.36-0.21c-0.19,0-0.34,0.09-0.45,0.27c-0.11,0.18-0.17,0.43-0.17,0.75v1.63h-0.7
		v-1.78c0-0.3-0.04-0.52-0.12-0.66c-0.08-0.14-0.2-0.21-0.36-0.21c-0.19,0-0.34,0.09-0.46,0.27c-0.11,0.18-0.17,0.43-0.17,0.75v1.63
		h-0.7v-3.29h0.64v0.6c0.1-0.22,0.23-0.39,0.39-0.5c0.16-0.11,0.34-0.17,0.56-0.17c0.19,0,0.36,0.06,0.5,0.18
		C145.41,51.91,145.52,52.08,145.6,52.3z M141.99,53.03c-0.02-0.28-0.08-0.49-0.2-0.65c-0.11-0.15-0.26-0.23-0.43-0.23
		c-0.18,0-0.33,0.08-0.45,0.23c-0.12,0.16-0.19,0.37-0.22,0.65H141.99z M142.63,53.29v0.27h-1.93c0.02,0.28,0.11,0.49,0.27,0.65
		c0.16,0.16,0.37,0.24,0.63,0.24c0.14,0,0.28-0.02,0.42-0.06c0.13-0.04,0.26-0.1,0.39-0.18v0.65c-0.13,0.07-0.28,0.11-0.43,0.15
		c-0.16,0.03-0.32,0.05-0.5,0.05c-0.46,0-0.82-0.16-1.08-0.47c-0.26-0.32-0.39-0.75-0.39-1.31c0-0.5,0.13-0.9,0.38-1.21
		c0.25-0.31,0.58-0.46,0.98-0.46c0.4,0,0.71,0.15,0.93,0.45C142.52,52.34,142.63,52.75,142.63,53.29z M138.68,50.12h0.7v4.85h-0.7
		V50.12z M137.5,53.03c-0.02-0.28-0.08-0.49-0.2-0.65c-0.11-0.15-0.26-0.23-0.43-0.23c-0.18,0-0.33,0.08-0.45,0.23
		c-0.12,0.16-0.19,0.37-0.22,0.65H137.5z M138.14,53.29v0.27h-1.93c0.02,0.28,0.11,0.49,0.27,0.65c0.16,0.16,0.37,0.24,0.63,0.24
		c0.14,0,0.28-0.02,0.42-0.06c0.13-0.04,0.26-0.1,0.39-0.18v0.65c-0.13,0.07-0.28,0.11-0.43,0.15c-0.16,0.03-0.32,0.05-0.5,0.05
		c-0.46,0-0.82-0.16-1.07-0.47c-0.26-0.32-0.39-0.75-0.39-1.31c0-0.5,0.13-0.9,0.38-1.21c0.25-0.31,0.58-0.46,0.98-0.46
		c0.4,0,0.71,0.15,0.93,0.45C138.03,52.34,138.14,52.75,138.14,53.29z M133.18,50.47h2.73v0.69h-1v3.8h-0.74v-3.8h-0.99V50.47z
		 M131.2,51.78l-0.05,0.62c-0.12-0.08-0.24-0.13-0.36-0.17c-0.12-0.04-0.24-0.06-0.35-0.06c-0.13,0-0.22,0.03-0.29,0.08
		c-0.07,0.05-0.1,0.13-0.1,0.22c0,0.15,0.14,0.29,0.43,0.45c0.03,0.02,0.06,0.03,0.07,0.04c0.3,0.16,0.5,0.31,0.61,0.46
		c0.11,0.15,0.17,0.34,0.17,0.56c0,0.31-0.1,0.56-0.31,0.74c-0.21,0.18-0.49,0.27-0.85,0.27c-0.15,0-0.3-0.01-0.44-0.04
		c-0.14-0.03-0.28-0.07-0.41-0.12l0.04-0.65c0.13,0.08,0.26,0.14,0.4,0.18c0.14,0.04,0.27,0.06,0.41,0.06
		c0.14,0,0.25-0.03,0.32-0.08c0.08-0.05,0.11-0.13,0.11-0.23c0-0.16-0.18-0.35-0.54-0.57l-0.01-0.01c-0.27-0.16-0.45-0.31-0.55-0.45
		c-0.09-0.14-0.14-0.3-0.14-0.5c0-0.29,0.1-0.52,0.31-0.71c0.2-0.18,0.47-0.27,0.8-0.27c0.09,0,0.19,0.01,0.29,0.04
		C130.85,51.66,131,51.71,131.2,51.78z M127.36,51.59c0.45,0,0.81,0.15,1.07,0.46c0.26,0.31,0.39,0.73,0.39,1.27
		c0,0.54-0.13,0.96-0.39,1.27c-0.26,0.31-0.62,0.46-1.07,0.46c-0.45,0-0.81-0.15-1.07-0.46c-0.26-0.31-0.39-0.73-0.39-1.27
		s0.13-0.96,0.39-1.27C126.55,51.75,126.91,51.59,127.36,51.59z M127.36,52.2c-0.21,0-0.39,0.1-0.52,0.31
		c-0.13,0.2-0.2,0.47-0.2,0.8c0,0.33,0.07,0.6,0.2,0.8c0.13,0.2,0.31,0.3,0.52,0.3c0.22,0,0.39-0.1,0.52-0.3
		c0.13-0.2,0.2-0.47,0.2-0.8c0-0.33-0.07-0.6-0.2-0.8C127.75,52.3,127.58,52.2,127.36,52.2z M124.57,50.21h0.7v0.82h-0.7V50.21z
		 M124.57,51.68h0.7v3.29h-0.7V51.68z M123.97,51.76l-0.05,0.66c-0.13-0.06-0.23-0.1-0.32-0.13c-0.09-0.03-0.17-0.04-0.23-0.04
		c-0.26,0-0.48,0.1-0.64,0.29c-0.16,0.19-0.24,0.45-0.24,0.77s0.08,0.57,0.24,0.78c0.16,0.2,0.37,0.3,0.63,0.3
		c0.09,0,0.19-0.02,0.28-0.05c0.1-0.03,0.2-0.09,0.32-0.16l0.03,0.67c-0.2,0.08-0.35,0.13-0.46,0.16c-0.11,0.03-0.21,0.04-0.31,0.04
		c-0.45,0-0.81-0.16-1.07-0.48c-0.27-0.32-0.4-0.75-0.4-1.28c0-0.49,0.14-0.9,0.41-1.22c0.28-0.32,0.63-0.48,1.05-0.48
		c0.16,0,0.36,0.04,0.62,0.13C123.9,51.74,123.94,51.75,123.97,51.76z M120.41,50.21h0.7v0.82h-0.7V50.21z M120.41,51.68h0.7v3.29
		h-0.7V51.68z M117.22,51.68h0.76l0.66,2.53l0.67-2.53h0.7l-1,3.29h-0.81L117.22,51.68z M117.11,51.63l-0.03,0.76
		c-0.04-0.02-0.08-0.03-0.12-0.03c-0.04-0.01-0.08-0.01-0.13-0.01c-0.23,0-0.41,0.09-0.53,0.28c-0.12,0.18-0.18,0.45-0.18,0.81v1.54
		h-0.7v-3.29h0.63v0.65c0.09-0.24,0.2-0.43,0.34-0.55c0.13-0.12,0.29-0.18,0.48-0.18c0.03,0,0.07,0,0.11,0.01
		C117.02,51.61,117.06,51.62,117.11,51.63z M114.24,53.03c-0.02-0.28-0.08-0.49-0.2-0.65c-0.11-0.15-0.26-0.23-0.43-0.23
		c-0.18,0-0.33,0.08-0.45,0.23c-0.12,0.16-0.19,0.37-0.22,0.65H114.24z M114.87,53.29v0.27h-1.93c0.02,0.28,0.11,0.49,0.27,0.65
		c0.16,0.16,0.37,0.24,0.63,0.24c0.14,0,0.28-0.02,0.42-0.06c0.13-0.04,0.26-0.1,0.39-0.18v0.65c-0.13,0.07-0.28,0.11-0.43,0.15
		c-0.15,0.03-0.32,0.05-0.5,0.05c-0.46,0-0.82-0.16-1.08-0.47c-0.26-0.32-0.39-0.75-0.39-1.31c0-0.5,0.13-0.9,0.38-1.21
		c0.25-0.31,0.58-0.46,0.98-0.46c0.4,0,0.71,0.15,0.93,0.45C114.76,52.34,114.87,52.75,114.87,53.29z M111.61,50.58l-0.06,0.71
		c-0.14-0.08-0.28-0.13-0.42-0.17c-0.14-0.04-0.28-0.06-0.41-0.06c-0.2,0-0.35,0.04-0.46,0.13c-0.11,0.09-0.17,0.21-0.17,0.37
		c0,0.2,0.2,0.42,0.6,0.66c0.04,0.02,0.07,0.04,0.09,0.05c0.38,0.23,0.63,0.44,0.77,0.65c0.14,0.2,0.2,0.45,0.2,0.73
		c0,0.42-0.13,0.76-0.4,1.02c-0.26,0.26-0.61,0.4-1.04,0.4c-0.18,0-0.47-0.08-0.89-0.23c-0.04-0.02-0.08-0.03-0.1-0.04l0.07-0.77
		c0.21,0.12,0.39,0.21,0.53,0.27c0.14,0.05,0.27,0.08,0.39,0.08c0.2,0,0.36-0.06,0.49-0.17c0.12-0.11,0.19-0.25,0.19-0.42
		c0-0.22-0.2-0.46-0.6-0.72l-0.06-0.04c-0.02-0.01-0.04-0.03-0.08-0.05c-0.3-0.19-0.51-0.36-0.63-0.52
		c-0.09-0.11-0.15-0.23-0.2-0.37c-0.05-0.14-0.07-0.29-0.07-0.44c0-0.38,0.12-0.69,0.37-0.92c0.25-0.23,0.58-0.35,1-0.35
		c0.16,0,0.4,0.05,0.71,0.16C111.52,50.55,111.58,50.57,111.61,50.58z M104.59,51.68h0.76l0.68,2.51l0.67-2.51h0.71l-1.08,3.43
		c-0.15,0.48-0.31,0.8-0.48,0.99c-0.17,0.18-0.4,0.28-0.69,0.28c-0.05,0-0.1,0-0.17-0.01c-0.07-0.01-0.14-0.02-0.23-0.04l0.06-0.66
		c0.04,0.02,0.08,0.03,0.11,0.03c0.04,0.01,0.08,0.01,0.11,0.01c0.14,0,0.25-0.05,0.35-0.15c0.1-0.1,0.19-0.26,0.28-0.49
		L104.59,51.68z M102.57,53.01v1.96h-0.71v-1.78c0-0.3-0.04-0.53-0.13-0.67c-0.09-0.14-0.22-0.22-0.41-0.22
		c-0.2,0-0.35,0.09-0.47,0.28c-0.12,0.18-0.17,0.44-0.17,0.76v1.63h-0.7v-3.29h0.64v0.6c0.1-0.22,0.24-0.39,0.4-0.51
		c0.17-0.12,0.36-0.17,0.57-0.17c0.32,0,0.57,0.12,0.73,0.36C102.49,52.19,102.57,52.54,102.57,53.01z M97.99,50.1h0.62l-0.81,1.14
		h-0.34L97.99,50.1z M97.87,51.59c0.45,0,0.81,0.15,1.07,0.46c0.26,0.31,0.39,0.73,0.39,1.27c0,0.54-0.13,0.96-0.39,1.27
		c-0.26,0.31-0.62,0.46-1.07,0.46c-0.45,0-0.81-0.15-1.07-0.46c-0.26-0.31-0.39-0.73-0.39-1.27s0.13-0.96,0.39-1.27
		C97.06,51.75,97.42,51.59,97.87,51.59z M97.87,52.2c-0.21,0-0.39,0.1-0.52,0.31c-0.13,0.2-0.2,0.47-0.2,0.8
		c0,0.33,0.07,0.6,0.2,0.8c0.13,0.2,0.31,0.3,0.52,0.3c0.22,0,0.39-0.1,0.52-0.3c0.13-0.2,0.2-0.47,0.2-0.8c0-0.33-0.07-0.6-0.2-0.8
		C98.26,52.3,98.09,52.2,97.87,52.2z M95.08,50.21h0.7v0.82h-0.7V50.21z M95.08,51.68h0.7v3.29h-0.7V51.68z M94.48,51.76l-0.05,0.66
		c-0.13-0.06-0.23-0.1-0.32-0.13c-0.09-0.03-0.17-0.04-0.23-0.04c-0.26,0-0.48,0.1-0.64,0.29c-0.16,0.19-0.24,0.45-0.24,0.77
		s0.08,0.57,0.24,0.78c0.16,0.2,0.37,0.3,0.63,0.3c0.09,0,0.19-0.02,0.28-0.05c0.1-0.03,0.2-0.09,0.32-0.16l0.03,0.67
		c-0.2,0.08-0.35,0.13-0.46,0.16c-0.11,0.03-0.21,0.04-0.31,0.04c-0.45,0-0.81-0.16-1.07-0.48c-0.27-0.32-0.4-0.75-0.4-1.28
		c0-0.49,0.14-0.9,0.41-1.22c0.28-0.32,0.63-0.48,1.05-0.48c0.16,0,0.36,0.04,0.62,0.13C94.41,51.74,94.45,51.75,94.48,51.76z
		 M91.67,53.09v1.87h-0.62l-0.01-0.53c-0.11,0.2-0.25,0.36-0.41,0.46c-0.16,0.1-0.33,0.16-0.52,0.16c-0.28,0-0.5-0.1-0.67-0.29
		c-0.17-0.19-0.25-0.44-0.25-0.75c0-0.37,0.12-0.64,0.36-0.82c0.24-0.18,0.6-0.27,1.08-0.27h0.36v-0.05c0-0.22-0.06-0.4-0.18-0.52
		c-0.12-0.12-0.29-0.18-0.5-0.18c-0.12,0-0.25,0.02-0.38,0.07c-0.13,0.04-0.27,0.11-0.41,0.2l-0.01-0.6
		c0.16-0.08,0.33-0.14,0.48-0.18c0.16-0.04,0.32-0.06,0.48-0.06c0.41,0,0.71,0.12,0.9,0.36C91.58,52.19,91.67,52.57,91.67,53.09z
		 M90.75,53.39c-0.29,0-0.5,0.05-0.65,0.14c-0.15,0.1-0.22,0.24-0.22,0.43c0,0.14,0.04,0.26,0.12,0.35
		c0.08,0.09,0.19,0.14,0.32,0.14c0.19,0,0.35-0.08,0.48-0.25c0.13-0.16,0.19-0.38,0.19-0.64v-0.18H90.75z M86.74,52.3
		c0.11-0.23,0.24-0.41,0.4-0.52c0.16-0.12,0.35-0.18,0.56-0.18c0.29,0,0.52,0.12,0.68,0.37c0.16,0.24,0.24,0.59,0.24,1.04v1.96h-0.7
		v-1.78c0-0.3-0.04-0.52-0.12-0.66c-0.08-0.14-0.2-0.21-0.36-0.21c-0.19,0-0.34,0.09-0.46,0.27c-0.11,0.18-0.17,0.43-0.17,0.75v1.63
		h-0.7v-1.78c0-0.3-0.04-0.52-0.12-0.66c-0.08-0.14-0.2-0.21-0.36-0.21c-0.19,0-0.34,0.09-0.46,0.27c-0.11,0.18-0.17,0.43-0.17,0.75
		v1.63h-0.7v-3.29h0.64v0.6c0.1-0.22,0.23-0.39,0.39-0.5c0.16-0.11,0.34-0.17,0.56-0.17c0.19,0,0.36,0.06,0.5,0.18
		C86.56,51.91,86.67,52.08,86.74,52.3z M83.87,51.63l-0.03,0.76c-0.04-0.02-0.08-0.03-0.12-0.03c-0.04-0.01-0.08-0.01-0.13-0.01
		c-0.23,0-0.41,0.09-0.53,0.28c-0.12,0.18-0.18,0.45-0.18,0.81v1.54h-0.7v-3.29h0.63v0.65c0.09-0.24,0.2-0.43,0.33-0.55
		c0.13-0.12,0.29-0.18,0.48-0.18c0.03,0,0.07,0,0.11,0.01C83.77,51.61,83.82,51.62,83.87,51.63z M80.09,51.59
		c0.45,0,0.81,0.15,1.07,0.46c0.26,0.31,0.39,0.73,0.39,1.27c0,0.54-0.13,0.96-0.39,1.27c-0.26,0.31-0.62,0.46-1.07,0.46
		c-0.45,0-0.81-0.15-1.07-0.46c-0.26-0.31-0.39-0.73-0.39-1.27s0.13-0.96,0.39-1.27C79.27,51.75,79.63,51.59,80.09,51.59z
		 M80.09,52.2c-0.21,0-0.39,0.1-0.52,0.31c-0.13,0.2-0.2,0.47-0.2,0.8c0,0.33,0.07,0.6,0.2,0.8c0.13,0.2,0.31,0.3,0.52,0.3
		c0.22,0,0.39-0.1,0.52-0.3c0.13-0.2,0.2-0.47,0.2-0.8c0-0.33-0.07-0.6-0.2-0.8C80.48,52.3,80.3,52.2,80.09,52.2z M78.37,50.12
		l-0.04,0.62c-0.05-0.02-0.1-0.04-0.14-0.05c-0.04-0.01-0.08-0.02-0.11-0.02c-0.14,0-0.24,0.05-0.31,0.16
		c-0.06,0.11-0.1,0.27-0.1,0.5v0.36h0.65v0.63h-0.65v2.66h-0.7v-2.66H76.4v-0.63h0.57v-0.42c0-0.4,0.08-0.7,0.25-0.9
		c0.17-0.2,0.41-0.31,0.72-0.31c0.08,0,0.15,0.01,0.22,0.02C78.24,50.08,78.3,50.09,78.37,50.12z M75.93,53.01v1.96h-0.71v-1.78
		c0-0.3-0.04-0.53-0.13-0.67c-0.09-0.14-0.22-0.22-0.41-0.22c-0.2,0-0.35,0.09-0.47,0.28c-0.12,0.18-0.17,0.44-0.17,0.76v1.63h-0.7
		v-3.29h0.64v0.6c0.1-0.22,0.24-0.39,0.4-0.51c0.17-0.12,0.36-0.17,0.57-0.17c0.32,0,0.57,0.12,0.73,0.36
		C75.85,52.19,75.93,52.54,75.93,53.01z M71.76,50.47h0.74v4.5h-0.74V50.47z M69.38,53.09v1.87h-0.62l-0.01-0.53
		c-0.11,0.2-0.25,0.36-0.41,0.46c-0.16,0.1-0.33,0.16-0.52,0.16c-0.28,0-0.5-0.1-0.67-0.29c-0.17-0.19-0.25-0.44-0.25-0.75
		c0-0.37,0.12-0.64,0.36-0.82c0.24-0.18,0.6-0.27,1.08-0.27h0.36v-0.05c0-0.22-0.06-0.4-0.18-0.52c-0.12-0.12-0.29-0.18-0.5-0.18
		c-0.12,0-0.25,0.02-0.38,0.07c-0.13,0.04-0.27,0.11-0.41,0.2l-0.01-0.6c0.16-0.08,0.33-0.14,0.48-0.18
		c0.16-0.04,0.32-0.06,0.48-0.06c0.41,0,0.71,0.12,0.9,0.36C69.29,52.19,69.38,52.57,69.38,53.09z M68.45,53.39
		c-0.29,0-0.5,0.05-0.65,0.14c-0.15,0.1-0.22,0.24-0.22,0.43c0,0.14,0.04,0.26,0.12,0.35c0.08,0.09,0.19,0.14,0.32,0.14
		c0.19,0,0.35-0.08,0.48-0.25c0.13-0.16,0.19-0.38,0.19-0.64v-0.18H68.45z M65.58,50.12h0.7v4.85h-0.7V50.12z M62.8,53.03
		c-0.02-0.28-0.09-0.49-0.2-0.65c-0.11-0.15-0.26-0.23-0.43-0.23c-0.18,0-0.33,0.08-0.45,0.23c-0.12,0.16-0.19,0.37-0.22,0.65H62.8z
		 M63.44,53.29v0.27h-1.93c0.02,0.28,0.11,0.49,0.27,0.65c0.16,0.16,0.37,0.24,0.63,0.24c0.14,0,0.28-0.02,0.42-0.06
		c0.13-0.04,0.26-0.1,0.39-0.18v0.65c-0.13,0.07-0.28,0.11-0.43,0.15c-0.16,0.03-0.32,0.05-0.5,0.05c-0.46,0-0.82-0.16-1.08-0.47
		c-0.26-0.32-0.39-0.75-0.39-1.31c0-0.5,0.13-0.9,0.38-1.21c0.25-0.31,0.58-0.46,0.98-0.46c0.4,0,0.71,0.15,0.93,0.45
		C63.33,52.34,63.44,52.75,63.44,53.29z M59.49,50.12h0.7v4.85h-0.63V54.3c-0.11,0.24-0.25,0.42-0.42,0.54
		c-0.17,0.12-0.36,0.18-0.58,0.18c-0.34,0-0.61-0.16-0.83-0.49c-0.22-0.33-0.33-0.75-0.33-1.26c0-0.5,0.11-0.9,0.32-1.21
		c0.21-0.31,0.49-0.46,0.83-0.46c0.21,0,0.39,0.05,0.54,0.14c0.15,0.1,0.29,0.24,0.4,0.43V50.12z M58.78,52.23
		c-0.19,0-0.34,0.1-0.46,0.3c-0.12,0.2-0.18,0.46-0.18,0.78c0,0.33,0.06,0.59,0.18,0.78c0.12,0.19,0.28,0.29,0.48,0.29
		c0.21,0,0.37-0.1,0.5-0.29c0.12-0.19,0.19-0.45,0.19-0.77c0-0.33-0.06-0.6-0.19-0.79C59.17,52.33,59,52.23,58.78,52.23z
		 M55.24,51.78l-0.05,0.62c-0.12-0.08-0.24-0.13-0.36-0.17c-0.12-0.04-0.24-0.06-0.35-0.06c-0.13,0-0.22,0.03-0.29,0.08
		c-0.07,0.05-0.1,0.13-0.1,0.22c0,0.15,0.14,0.29,0.43,0.45c0.03,0.02,0.06,0.03,0.07,0.04c0.3,0.16,0.5,0.31,0.61,0.46
		c0.11,0.15,0.17,0.34,0.17,0.56c0,0.31-0.1,0.56-0.31,0.74C54.84,54.91,54.56,55,54.2,55c-0.15,0-0.3-0.01-0.44-0.04
		c-0.14-0.03-0.28-0.07-0.41-0.12l0.04-0.65c0.13,0.08,0.26,0.14,0.4,0.18c0.14,0.04,0.27,0.06,0.41,0.06
		c0.14,0,0.25-0.03,0.32-0.08c0.08-0.05,0.11-0.13,0.11-0.23c0-0.16-0.18-0.35-0.54-0.57l-0.01-0.01c-0.27-0.16-0.45-0.31-0.55-0.45
		c-0.1-0.14-0.14-0.3-0.14-0.5c0-0.29,0.1-0.52,0.3-0.71c0.2-0.18,0.47-0.27,0.8-0.27c0.09,0,0.19,0.01,0.29,0.04
		C54.89,51.66,55.04,51.71,55.24,51.78z M52.73,53.09v1.87h-0.62l-0.01-0.53c-0.11,0.2-0.25,0.36-0.41,0.46
		c-0.16,0.1-0.33,0.16-0.52,0.16c-0.28,0-0.5-0.1-0.67-0.29c-0.17-0.19-0.25-0.44-0.25-0.75c0-0.37,0.12-0.64,0.36-0.82
		c0.24-0.18,0.6-0.27,1.09-0.27h0.36v-0.05c0-0.22-0.06-0.4-0.18-0.52c-0.12-0.12-0.29-0.18-0.5-0.18c-0.12,0-0.25,0.02-0.38,0.07
		c-0.13,0.04-0.27,0.11-0.41,0.2l-0.01-0.6c0.16-0.08,0.32-0.14,0.48-0.18c0.16-0.04,0.32-0.06,0.48-0.06c0.41,0,0.71,0.12,0.9,0.36
		C52.64,52.19,52.73,52.57,52.73,53.09z M51.81,53.39c-0.29,0-0.5,0.05-0.65,0.14c-0.15,0.1-0.22,0.24-0.22,0.43
		c0,0.14,0.04,0.26,0.12,0.35c0.08,0.09,0.19,0.14,0.33,0.14c0.19,0,0.35-0.08,0.48-0.25c0.13-0.16,0.19-0.38,0.19-0.64v-0.18H51.81
		z M49.41,50.1h0.62l-0.81,1.14h-0.34L49.41,50.1z M48.94,51.68h0.7v3.29h-0.7V51.68z M47.5,52.24v-0.56h0.66v2.88
		c0,0.61-0.13,1.06-0.38,1.36c-0.25,0.3-0.64,0.45-1.15,0.45c-0.16,0-0.33-0.02-0.49-0.05c-0.16-0.04-0.32-0.09-0.47-0.15l0.04-0.68
		c0.15,0.09,0.29,0.15,0.44,0.2c0.14,0.05,0.29,0.07,0.42,0.07c0.28,0,0.51-0.09,0.67-0.28c0.16-0.19,0.24-0.45,0.24-0.78v-0.36
		c-0.12,0.21-0.26,0.36-0.41,0.46c-0.15,0.1-0.32,0.15-0.51,0.15c-0.36,0-0.64-0.15-0.86-0.46c-0.22-0.3-0.33-0.7-0.33-1.2
		c0-0.5,0.11-0.91,0.33-1.23c0.22-0.31,0.5-0.47,0.85-0.47c0.21,0,0.39,0.05,0.54,0.16C47.25,51.86,47.39,52.02,47.5,52.24z
		 M46.77,52.24c-0.19,0-0.35,0.09-0.47,0.28c-0.12,0.19-0.18,0.43-0.18,0.74c0,0.32,0.06,0.57,0.18,0.76
		c0.12,0.19,0.28,0.28,0.48,0.28c0.19,0,0.35-0.09,0.48-0.28c0.13-0.19,0.19-0.43,0.19-0.72c0-0.33-0.06-0.58-0.18-0.77
		C47.14,52.33,46.97,52.24,46.77,52.24z M43.45,51.59c0.45,0,0.81,0.15,1.07,0.46c0.26,0.31,0.39,0.73,0.39,1.27
		c0,0.54-0.13,0.96-0.39,1.27c-0.26,0.31-0.62,0.46-1.07,0.46c-0.45,0-0.81-0.15-1.07-0.46c-0.26-0.31-0.39-0.73-0.39-1.27
		s0.13-0.96,0.39-1.27C42.64,51.75,42.99,51.59,43.45,51.59z M43.45,52.2c-0.21,0-0.39,0.1-0.52,0.31c-0.13,0.2-0.2,0.47-0.2,0.8
		c0,0.33,0.07,0.6,0.2,0.8c0.13,0.2,0.31,0.3,0.52,0.3c0.22,0,0.39-0.1,0.52-0.3c0.13-0.2,0.2-0.47,0.2-0.8c0-0.33-0.07-0.6-0.2-0.8
		C43.84,52.3,43.66,52.2,43.45,52.2z M40.66,50.12h0.7v4.85h-0.7V50.12z M38.57,51.59c0.45,0,0.81,0.15,1.07,0.46
		c0.26,0.31,0.39,0.73,0.39,1.27c0,0.54-0.13,0.96-0.39,1.27c-0.26,0.31-0.62,0.46-1.07,0.46c-0.45,0-0.81-0.15-1.07-0.46
		c-0.26-0.31-0.39-0.73-0.39-1.27s0.13-0.96,0.39-1.27C37.76,51.75,38.12,51.59,38.57,51.59z M38.57,52.2
		c-0.21,0-0.39,0.1-0.52,0.31c-0.13,0.2-0.2,0.47-0.2,0.8c0,0.33,0.07,0.6,0.2,0.8c0.13,0.2,0.31,0.3,0.52,0.3
		c0.22,0,0.39-0.1,0.52-0.3c0.13-0.2,0.2-0.47,0.2-0.8c0-0.33-0.07-0.6-0.2-0.8C38.96,52.3,38.79,52.2,38.57,52.2z M36.53,53.01
		v1.96h-0.71v-1.78c0-0.3-0.04-0.53-0.13-0.67c-0.09-0.14-0.22-0.22-0.41-0.22c-0.2,0-0.35,0.09-0.47,0.28
		c-0.12,0.18-0.17,0.44-0.17,0.76v1.63h-0.7v-3.29h0.64v0.6c0.1-0.22,0.24-0.39,0.4-0.51c0.17-0.12,0.36-0.17,0.57-0.17
		c0.32,0,0.57,0.12,0.73,0.36C36.45,52.19,36.53,52.54,36.53,53.01z M33.32,51.76l-0.06,0.66c-0.13-0.06-0.23-0.1-0.32-0.13
		c-0.09-0.03-0.17-0.04-0.23-0.04c-0.26,0-0.48,0.1-0.64,0.29c-0.16,0.19-0.24,0.45-0.24,0.77s0.08,0.57,0.24,0.78
		c0.16,0.2,0.37,0.3,0.63,0.3c0.09,0,0.19-0.02,0.28-0.05c0.1-0.03,0.2-0.09,0.32-0.16l0.03,0.67c-0.2,0.08-0.35,0.13-0.46,0.16
		c-0.11,0.03-0.21,0.04-0.31,0.04c-0.45,0-0.81-0.16-1.07-0.48c-0.27-0.32-0.4-0.75-0.4-1.28c0-0.49,0.14-0.9,0.41-1.22
		c0.28-0.32,0.63-0.48,1.05-0.48c0.16,0,0.36,0.04,0.62,0.13C33.25,51.74,33.29,51.75,33.32,51.76z M30.09,53.03
		c-0.02-0.28-0.08-0.49-0.2-0.65c-0.11-0.15-0.26-0.23-0.43-0.23c-0.18,0-0.33,0.08-0.45,0.23c-0.12,0.16-0.19,0.37-0.22,0.65H30.09
		z M30.73,53.29v0.27h-1.93c0.02,0.28,0.11,0.49,0.27,0.65c0.16,0.16,0.37,0.24,0.63,0.24c0.14,0,0.28-0.02,0.42-0.06
		c0.13-0.04,0.26-0.1,0.39-0.18v0.65c-0.13,0.07-0.28,0.11-0.43,0.15c-0.16,0.03-0.32,0.05-0.5,0.05c-0.46,0-0.82-0.16-1.07-0.47
		c-0.26-0.32-0.39-0.75-0.39-1.31c0-0.5,0.13-0.9,0.38-1.21c0.25-0.31,0.58-0.46,0.98-0.46c0.4,0,0.71,0.15,0.93,0.45
		C30.62,52.34,30.73,52.75,30.73,53.29z M25.77,50.47h2.73v0.69h-1v3.8h-0.74v-3.8h-0.99V50.47z"/>
	<path class="st1" d="M162.74,51.78l-0.05,0.62c-0.12-0.08-0.24-0.13-0.36-0.17c-0.12-0.04-0.24-0.06-0.35-0.06
		c-0.13,0-0.22,0.03-0.29,0.08c-0.07,0.05-0.1,0.13-0.1,0.22c0,0.15,0.14,0.29,0.43,0.45c0.03,0.02,0.06,0.03,0.07,0.04
		c0.3,0.16,0.5,0.31,0.61,0.46c0.11,0.15,0.17,0.34,0.17,0.56c0,0.31-0.1,0.56-0.31,0.74c-0.21,0.18-0.49,0.27-0.85,0.27
		c-0.15,0-0.3-0.01-0.44-0.04c-0.14-0.03-0.28-0.07-0.41-0.12l0.04-0.65c0.13,0.08,0.26,0.14,0.4,0.18
		c0.14,0.04,0.27,0.06,0.41,0.06c0.14,0,0.25-0.03,0.32-0.08c0.08-0.05,0.11-0.13,0.11-0.23c0-0.16-0.18-0.35-0.54-0.57l-0.01-0.01
		c-0.27-0.16-0.45-0.31-0.55-0.45c-0.09-0.14-0.14-0.3-0.14-0.5c0-0.29,0.1-0.52,0.31-0.71c0.2-0.18,0.47-0.27,0.8-0.27
		c0.09,0,0.19,0.01,0.29,0.04C162.39,51.66,162.55,51.71,162.74,51.78 M158.91,51.59c0.45,0,0.81,0.15,1.07,0.46
		c0.26,0.31,0.39,0.73,0.39,1.27c0,0.54-0.13,0.96-0.39,1.27c-0.26,0.31-0.62,0.46-1.07,0.46c-0.45,0-0.81-0.15-1.07-0.46
		c-0.26-0.31-0.39-0.73-0.39-1.27s0.13-0.96,0.39-1.27C158.09,51.75,158.45,51.59,158.91,51.59z M158.91,52.2
		c-0.21,0-0.39,0.1-0.52,0.31c-0.13,0.2-0.2,0.47-0.2,0.8c0,0.33,0.07,0.6,0.2,0.8c0.13,0.2,0.31,0.3,0.52,0.3
		c0.22,0,0.39-0.1,0.52-0.3c0.13-0.2,0.2-0.47,0.2-0.8c0-0.33-0.07-0.6-0.2-0.8C159.29,52.3,159.12,52.2,158.91,52.2z M157.02,51.76
		l-0.05,0.66c-0.13-0.06-0.23-0.1-0.32-0.13c-0.09-0.03-0.17-0.04-0.23-0.04c-0.26,0-0.48,0.1-0.64,0.29
		c-0.16,0.19-0.24,0.45-0.24,0.77s0.08,0.57,0.24,0.78c0.16,0.2,0.37,0.3,0.63,0.3c0.09,0,0.19-0.02,0.28-0.05
		c0.1-0.03,0.2-0.09,0.32-0.16l0.03,0.67c-0.2,0.08-0.35,0.13-0.46,0.16c-0.11,0.03-0.21,0.04-0.31,0.04
		c-0.45,0-0.81-0.16-1.07-0.48c-0.27-0.32-0.4-0.75-0.4-1.28c0-0.49,0.14-0.9,0.41-1.22c0.28-0.32,0.63-0.48,1.05-0.48
		c0.16,0,0.36,0.04,0.62,0.13C156.95,51.74,156.99,51.75,157.02,51.76z M153.46,50.21h0.7v0.82h-0.7V50.21z M153.46,51.68h0.7v3.29
		h-0.7V51.68z M152.24,50.61v1.07h0.66v0.62h-0.66v1.44c0,0.25,0.03,0.42,0.1,0.53c0.06,0.11,0.17,0.16,0.31,0.16
		c0.04,0,0.08,0,0.12-0.01c0.05-0.01,0.09-0.02,0.15-0.04l0.01,0.59c-0.08,0.02-0.16,0.04-0.24,0.05c-0.08,0.01-0.16,0.02-0.25,0.02
		c-0.32,0-0.56-0.1-0.7-0.29c-0.14-0.19-0.21-0.51-0.21-0.96V52.3h-0.54v-0.62h0.57v-0.8L152.24,50.61z"/>
</g>
</svg>
